<svg width="33" height="24" viewBox="0 0 33 24" fill="none" xmlns="http://www.w3.org/2000/svg">
<path d="M31.0068 16.6914C31.1388 15.9753 31.1388 15.244 31.0068 14.5278L32.3171 13.7711C32.4695 13.6847 32.5355 13.507 32.4847 13.3394C32.1445 12.2423 31.5604 11.2468 30.7985 10.4241C30.6817 10.2971 30.4938 10.2666 30.3414 10.353L29.0311 11.1097C28.4775 10.6374 27.8426 10.2717 27.157 10.0279V8.51439C27.157 8.3417 27.0351 8.18934 26.8675 8.15378C25.7349 7.89984 24.582 7.91 23.5052 8.15378C23.3376 8.18934 23.2157 8.3417 23.2157 8.51439V10.0279C22.5301 10.2717 21.8952 10.6374 21.3416 11.1097L20.0312 10.353C19.884 10.2666 19.691 10.2971 19.5741 10.4241C18.8123 11.2468 18.2282 12.2423 17.8879 13.3394C17.8372 13.507 17.9083 13.6847 18.0555 13.7711L19.3659 14.5278C19.2339 15.244 19.2339 15.9753 19.3659 16.6914L18.0555 17.4482C17.9032 17.5345 17.8372 17.7123 17.8879 17.8799C18.2282 18.977 18.8123 19.9674 19.5741 20.7952C19.691 20.9222 19.8789 20.9527 20.0312 20.8663L21.3416 20.1096C21.8952 20.5819 22.5301 20.9476 23.2157 21.1914V22.7049C23.2157 22.8776 23.3376 23.0299 23.5052 23.0655C24.6378 23.3194 25.7907 23.3093 26.8675 23.0655C27.0351 23.0299 27.157 22.8776 27.157 22.7049V21.1914C27.8426 20.9476 28.4775 20.5819 29.0311 20.1096L30.3414 20.8663C30.4887 20.9527 30.6817 20.9222 30.7985 20.7952C31.5604 19.9724 32.1445 18.977 32.4847 17.8799C32.5355 17.7123 32.4644 17.5345 32.3171 17.4482L31.0068 16.6914ZM25.1914 18.0729C23.8303 18.0729 22.7281 16.9657 22.7281 15.6096C22.7281 14.2536 23.8354 13.1464 25.1914 13.1464C26.5475 13.1464 27.6547 14.2536 27.6547 15.6096C27.6547 16.9657 26.5526 18.0729 25.1914 18.0729ZM4.87576 10.7339C6.66862 10.7339 8.12627 9.27623 8.12627 7.48337C8.12627 5.69051 6.66862 4.23286 4.87576 4.23286C3.0829 4.23286 1.62525 5.69051 1.62525 7.48337C1.62525 9.27623 3.0829 10.7339 4.87576 10.7339ZM16.2525 12.3591C16.349 12.3591 16.4405 12.3337 16.537 12.3287C16.9585 11.2265 17.5781 10.1904 18.3806 9.32194C18.7564 8.91562 19.2897 8.68199 19.8484 8.68199C20.1988 8.68199 20.5442 8.77341 20.8439 8.95117L21.2451 9.1848C21.2857 9.15941 21.3264 9.13909 21.367 9.1137C21.7225 8.37218 21.9358 7.54939 21.9358 6.67582C21.9358 3.53197 19.3913 0.987427 16.2475 0.987427C13.1036 0.987427 10.5641 3.52689 10.5641 6.67074C10.5641 9.81459 13.1087 12.3591 16.2525 12.3591ZM21.5956 22.2376C21.4787 22.1767 21.3619 22.1056 21.2502 22.0396C20.8337 22.2833 20.4731 22.5373 19.8535 22.5373C19.2999 22.5373 18.7666 22.3037 18.3857 21.8973C17.4562 20.8917 16.7452 19.6677 16.344 18.3624C15.8005 16.6102 17.6086 15.8382 17.6543 15.8077C17.6492 15.6757 17.6492 15.5436 17.6543 15.4116L17.2531 15.1779C17.0601 15.0662 16.8976 14.924 16.7553 14.7665C16.5877 14.7767 16.4252 14.797 16.2576 14.797C15.0082 14.797 13.84 14.4923 12.7786 13.9844H12.357C9.12173 13.9844 6.50101 16.6051 6.50101 19.8353V21.298C6.50101 22.6439 7.59298 23.7359 8.93889 23.7359H21.9104C21.7225 23.4312 21.5956 23.0858 21.5956 22.7049V22.2376ZM8.7916 13.3038C8.20245 12.7197 7.3949 12.3591 6.50101 12.3591H3.25051C1.45765 12.3591 0 13.8168 0 15.6096V17.2349C0 18.1339 0.726285 18.8601 1.62525 18.8601H4.97226C5.29223 16.4527 6.7448 14.4263 8.7916 13.3038Z" fill="#A4AFCE"/>
</svg>
