<svg width="24" height="25" viewBox="0 0 24 25" fill="none" xmlns="http://www.w3.org/2000/svg">
<path d="M1.3012 4.45374C1.35455 3.92906 1.46964 3.45206 1.75517 3.02491L1.3012 4.45374ZM1.3012 4.45374C1.24997 4.95749 1.24998 5.58152 1.25 6.33744M1.3012 4.45374L1.25 6.33744M1.25 6.33744L1.25 6.37643M1.25 6.33744L1.25 6.37643M1.25 6.37643L1.25 6.41542C1.24998 7.17134 1.24997 7.79536 1.3012 8.29912C1.35456 8.8239 1.46968 9.30098 1.75534 9.7282C1.97405 10.0555 2.25509 10.3365 2.5824 10.5553L1.25 6.37643ZM10.113 3.02466C10.3987 3.45187 10.5138 3.92896 10.5671 4.45374C10.6184 4.95749 10.6183 5.58151 10.6183 6.33744V6.37643V6.41542C10.6183 7.17134 10.6184 7.79537 10.5671 8.29912C10.5138 8.8239 10.3987 9.30098 10.113 9.7282C9.89428 10.0555 9.61325 10.3365 9.28594 10.5553L10.113 3.02466ZM10.113 3.02466C9.89428 2.69735 9.61325 2.41631 9.28594 2.1976L10.113 3.02466ZM5.97312 11.0606H5.93417H5.89521C5.13927 11.0606 4.51524 11.0606 4.01148 11.0094C3.4868 10.956 3.0098 10.841 2.58265 10.5554L5.97312 11.0606ZM5.97312 11.0606C6.72906 11.0606 7.35309 11.0606 7.85685 11.0094M5.97312 11.0606L7.85685 11.0094M7.85685 11.0094C8.38154 10.956 8.85853 10.841 9.28569 10.5554L7.85685 11.0094ZM4.01148 1.74346C3.4868 1.79681 3.0098 1.9119 2.58265 2.19743L9.28569 2.19743C8.85853 1.9119 8.38154 1.79681 7.85685 1.74346C7.3531 1.69223 6.72908 1.69225 5.97315 1.69226L5.93417 1.69226L5.89518 1.69226C5.13926 1.69225 4.51523 1.69223 4.01148 1.74346ZM2.5824 2.1976C2.25509 2.41631 1.97405 2.69735 1.75534 3.02466L2.5824 2.1976Z" fill="#A4AFCE" stroke="#A4AFCE" stroke-width="1.5" stroke-linecap="round" stroke-linejoin="round"/>
<path d="M7.62024 14.0568H4.2481C2.59229 14.0568 1.25 15.3991 1.25 17.0549V20.427C1.25 22.0828 2.59229 23.4251 4.2481 23.4251H7.62024C9.27604 23.4251 10.6183 22.0828 10.6183 20.427V17.0549C10.6183 15.3991 9.27604 14.0568 7.62024 14.0568Z" fill="#A4AFCE" stroke="#A4AFCE" stroke-width="1.5" stroke-linecap="round" stroke-linejoin="round"/>
<path d="M19.9847 1.69226H16.6126C14.9568 1.69226 13.6145 3.03455 13.6145 4.69036V8.0625C13.6145 9.7183 14.9568 11.0606 16.6126 11.0606H19.9847C21.6405 11.0606 22.9828 9.7183 22.9828 8.0625V4.69036C22.9828 3.03455 21.6405 1.69226 19.9847 1.69226Z" fill="#A4AFCE" stroke="#A4AFCE" stroke-width="1.5" stroke-linecap="round" stroke-linejoin="round"/>
<path d="M19.9847 14.0568H16.6126C14.9568 14.0568 13.6145 15.3991 13.6145 17.0549V20.427C13.6145 22.0828 14.9568 23.4251 16.6126 23.4251H19.9847C21.6405 23.4251 22.9828 22.0828 22.9828 20.427V17.0549C22.9828 15.3991 21.6405 14.0568 19.9847 14.0568Z" fill="#A4AFCE" stroke="#A4AFCE" stroke-width="1.5" stroke-linecap="round" stroke-linejoin="round"/>
</svg>
