<svg width="26" height="26" viewBox="0 0 26 26" fill="none" xmlns="http://www.w3.org/2000/svg">
<path d="M12.9852 0C5.81736 0 0 5.81736 0 12.9852C0 20.153 5.81736 25.9704 12.9852 25.9704C20.153 25.9704 25.9704 20.153 25.9704 12.9852C25.9704 5.81736 20.153 0 12.9852 0ZM14.2837 22.0748H11.6867V19.4778H14.2837V22.0748ZM16.9716 12.0113L15.803 13.2059C14.868 14.1538 14.2837 14.933 14.2837 16.8807H11.6867V16.2315C11.6867 14.8031 12.271 13.5046 13.2059 12.5567L14.8161 10.9205C15.2965 10.4531 15.5822 9.80381 15.5822 9.08962C15.5822 7.66126 14.4136 6.49259 12.9852 6.49259C11.5568 6.49259 10.3881 7.66126 10.3881 9.08962H7.79111C7.79111 6.2199 10.1155 3.89555 12.9852 3.89555C15.8549 3.89555 18.1793 6.2199 18.1793 9.08962C18.1793 10.2323 17.7118 11.2711 16.9716 12.0113Z" fill="#FF9C27" fill-opacity="0.690196"/>
</svg>
