<svg width="25" height="23" viewBox="0 0 25 23" fill="none" xmlns="http://www.w3.org/2000/svg">
<path d="M13.2033 22.7414C19.2801 22.7414 24.2061 17.8154 24.2061 11.7386C24.2061 5.66178 19.2801 0.735843 13.2033 0.735843C11.495 0.73456 9.80984 1.13169 8.28185 1.89569C6.75386 2.65969 5.42509 3.7695 4.4011 5.13695H7.38285C8.65341 4.0166 10.2203 3.28668 11.8954 3.03476C13.5705 2.78284 15.2828 3.01963 16.8266 3.71672C18.3705 4.41381 19.6805 5.54158 20.5993 6.96471C21.5181 8.38783 22.0067 10.0459 22.0066 11.7398C22.0065 13.4338 21.5175 15.0917 20.5985 16.5147C19.6794 17.9377 18.3693 19.0652 16.8253 19.762C15.2813 20.4589 13.569 20.6954 11.8939 20.4432C10.2189 20.191 8.65212 19.4608 7.38175 18.3403H4.4C5.4241 19.7079 6.75304 20.8178 8.28124 21.5818C9.80944 22.3458 11.4948 22.7428 13.2033 22.7414ZM5.50138 16.1397V12.8389H14.3036V10.6383H5.50138V7.3375L1.90735e-06 11.7386L5.50138 16.1397Z" fill="#A4AFCE"/>
</svg>
