<svg width="25" height="21" viewBox="0 0 25 21" fill="none" xmlns="http://www.w3.org/2000/svg">
<path d="M4.03124 0C1.80485 0 0 1.80485 0 4.03124V12.0937C0 14.3202 1.80485 16.125 4.03124 16.125H20.1562C22.3827 16.125 24.1875 14.3202 24.1875 12.0937V4.03124C24.1875 1.80485 22.3827 0 20.1562 0H4.03124ZM2.01562 4.03124C2.01562 2.91806 2.91806 2.01562 4.03124 2.01562H20.1562C21.2694 2.01562 22.1718 2.91806 22.1718 4.03124V12.0937C22.1718 13.2069 21.2694 14.1093 20.1562 14.1093H4.03124C2.91806 14.1093 2.01562 13.2069 2.01562 12.0937V4.03124Z" fill="#FF9C27" fill-opacity="0.690196"/>
<path d="M5.03906 18.1406C4.48247 18.1406 4.03125 18.5919 4.03125 19.1484C4.03125 19.7049 4.48247 20.1562 5.03906 20.1562H19.1484C19.7049 20.1562 20.1562 19.7049 20.1562 19.1484C20.1562 18.5919 19.7049 18.1406 19.1484 18.1406H5.03906Z" fill="#FF9C27" fill-opacity="0.690196"/>
</svg>
