<svg width="23" height="24" viewBox="0 0 23 24" fill="none" xmlns="http://www.w3.org/2000/svg">
<path d="M8.28649 1.44933C8.45974 1.02111 8.75693 0.654388 9.13996 0.396169C9.52299 0.13795 9.9744 0 10.4363 0C10.8983 0 11.3497 0.13795 11.7327 0.396169C12.1157 0.654388 12.4129 1.02111 12.5862 1.44933C14.3009 1.9209 15.8134 2.94234 16.8914 4.35677C17.9694 5.77119 18.5533 7.50038 18.5534 9.27877V14.7253L20.6777 17.9118C20.7942 18.0864 20.8611 18.2894 20.8713 18.4991C20.8815 18.7088 20.8346 18.9173 20.7355 19.1024C20.6365 19.2875 20.4891 19.4423 20.309 19.5501C20.1289 19.658 19.9229 19.715 19.7129 19.7149H14.4543C14.3146 20.681 13.8316 21.5644 13.0937 22.2033C12.3558 22.8422 11.4124 23.1939 10.4363 23.1939C9.46026 23.1939 8.51685 22.8422 7.77894 22.2033C7.04104 21.5644 6.55803 20.681 6.41842 19.7149H1.15975C0.949815 19.715 0.743812 19.658 0.563716 19.5501C0.38362 19.4423 0.236188 19.2875 0.137149 19.1024C0.0381106 18.9173 -0.00881943 18.7088 0.0013658 18.4991C0.011551 18.2894 0.0784695 18.0864 0.194982 17.9118L2.31932 14.7253V9.27877C2.31932 5.5403 4.84719 2.3909 8.28649 1.44933ZM8.7967 19.7149C8.91646 20.0543 9.13853 20.3481 9.43229 20.556C9.72606 20.7638 10.0771 20.8755 10.4369 20.8755C10.7968 20.8755 11.1478 20.7638 11.4415 20.556C11.7353 20.3481 11.9574 20.0543 12.0771 19.7149H8.79554H8.7967ZM10.4363 3.4809C8.89865 3.4809 7.42394 4.09174 6.33663 5.17906C5.24931 6.26637 4.63847 7.74108 4.63847 9.27877V15.0766C4.63852 15.3057 4.57073 15.5296 4.44366 15.7202L3.32699 17.3958H17.5445L16.4279 15.7202C16.3012 15.5295 16.2338 15.3056 16.2342 15.0766V9.27877C16.2342 7.74108 15.6234 6.26637 14.5361 5.17906C13.4487 4.09174 11.974 3.4809 10.4363 3.4809Z" fill="#0D0D0D" fill-opacity="0.9"/>
<circle cx="17.6" cy="4.6" r="4.6" fill="#EC0F0F"/>
</svg>
