<svg width="27" height="27" viewBox="0 0 27 27" fill="none" xmlns="http://www.w3.org/2000/svg">
<path d="M2 10.315C2 9.00291 3.06364 7.93927 4.3757 7.93927H23.3813C24.6934 7.93927 25.757 9.00291 25.757 10.315V23.3813C25.757 24.6934 24.6934 25.7571 23.3813 25.7571H4.3757C3.06364 25.7571 2 24.6934 2 23.3813V10.315Z" stroke="#6BCAFA" stroke-width="2.3757" stroke-linecap="round" stroke-linejoin="round"/>
<path d="M18.6299 7.93926V4.3757C18.6299 3.06364 17.5663 2 16.2542 2H11.5028C10.1907 2 9.12711 3.06364 9.12711 4.3757V7.93926" stroke="#6BCAFA" stroke-width="2.3757" stroke-linecap="round" stroke-linejoin="round"/>
<path d="M25.757 13.8785L14.3444 16.1611C14.0369 16.2225 13.7202 16.2225 13.4126 16.1611L2 13.8785" stroke="#6BCAFA" stroke-width="2.3757" stroke-linecap="round" stroke-linejoin="round"/>
</svg>
