<svg width="24" height="24" viewBox="0 0 24 24" fill="none" xmlns="http://www.w3.org/2000/svg">
<path d="M11.184 19.495L9.256 21.793L2.088 21L6.588 15.638L11.184 19.495ZM13.236 18.605L7.107 13.463L15.463 3.505C16.1449 2.69224 17.1217 2.18365 18.1785 2.0911C19.2354 1.99855 20.2857 2.32963 21.0985 3.0115C21.9113 3.69337 22.4199 4.67018 22.5124 5.72704C22.6049 6.7839 22.2739 7.83424 21.592 8.647L13.236 18.606V18.605ZM19.152 5.985C19.0514 5.9006 18.9351 5.83686 18.8098 5.79742C18.6845 5.75798 18.5527 5.7436 18.4218 5.75512C18.291 5.76663 18.1637 5.80381 18.0472 5.86453C17.9307 5.92525 17.8274 6.00832 17.743 6.109L17.1 6.875C16.9295 7.07815 16.8466 7.34073 16.8697 7.60497C16.8928 7.86921 17.0198 8.11346 17.223 8.284C17.4262 8.45453 17.6887 8.53738 17.953 8.51431C18.2172 8.49124 18.4615 8.36415 18.632 8.161L19.275 7.395C19.3596 7.29438 19.4235 7.17808 19.4632 7.05273C19.5028 6.92738 19.5173 6.79545 19.5059 6.66449C19.4944 6.53353 19.4573 6.40611 19.3966 6.28952C19.3359 6.17292 19.2528 6.06944 19.152 5.985Z" fill="#FFD168"/>
</svg>
