<svg width="34" height="34" viewBox="0 0 34 34" fill="none" xmlns="http://www.w3.org/2000/svg">
<path d="M28.4954 26.5416L23.8173 21.8772C25.3267 19.9543 26.1456 17.5797 26.1426 15.1352C26.1426 12.9581 25.497 10.83 24.2875 9.0198C23.078 7.20964 21.3589 5.7988 19.3475 4.96567C17.3362 4.13255 15.123 3.91456 12.9878 4.33929C10.8525 4.76401 8.89119 5.81236 7.35178 7.35178C5.81236 8.89119 4.76401 10.8525 4.33929 12.9878C3.91456 15.123 4.13255 17.3362 4.96567 19.3475C5.7988 21.3589 7.20964 23.078 9.0198 24.2875C10.83 25.497 12.9581 26.1426 15.1352 26.1426C17.5797 26.1456 19.9543 25.3267 21.8772 23.8173L26.5416 28.4954C26.6695 28.6244 26.8217 28.7268 26.9894 28.7966C27.1571 28.8665 27.3369 28.9024 27.5185 28.9024C27.7002 28.9024 27.88 28.8665 28.0477 28.7966C28.2154 28.7268 28.3675 28.6244 28.4954 28.4954C28.6244 28.3675 28.7268 28.2154 28.7966 28.0477C28.8665 27.88 28.9024 27.7002 28.9024 27.5185C28.9024 27.3369 28.8665 27.1571 28.7966 26.9894C28.7268 26.8217 28.6244 26.6695 28.4954 26.5416ZM6.87964 15.1352C6.87964 13.5024 7.36382 11.9063 8.27095 10.5487C9.17808 9.19103 10.4674 8.1329 11.9759 7.50805C13.4844 6.88321 15.1444 6.71972 16.7458 7.03826C18.3472 7.35681 19.8182 8.14307 20.9728 9.29763C22.1273 10.4522 22.9136 11.9232 23.2321 13.5246C23.5507 15.126 23.3872 16.786 22.7623 18.2945C22.1375 19.803 21.0794 21.0923 19.7217 21.9994C18.3641 22.9066 16.768 23.3908 15.1352 23.3908C12.9457 23.3908 10.8458 22.521 9.29763 20.9728C7.74941 19.4245 6.87964 17.3247 6.87964 15.1352Z" fill="#A4AFCE"/>
</svg>
