<svg width="27" height="27" viewBox="0 0 27 27" fill="none" xmlns="http://www.w3.org/2000/svg">
<path d="M13.0362 15.6604C14.1157 15.6604 14.9908 14.7853 14.9908 13.7058C14.9908 12.6263 14.1157 11.7512 13.0362 11.7512C11.9567 11.7512 11.0816 12.6263 11.0816 13.7058C11.0816 14.7853 11.9567 15.6604 13.0362 15.6604Z" fill="#A4AFCE"/>
<path d="M25.9235 11.5167L24.8941 8.23293C24.783 7.85341 24.5965 7.50017 24.3459 7.19428C24.0953 6.88838 23.7856 6.63609 23.4354 6.45246C23.0851 6.26883 22.7015 6.15762 22.3074 6.12547C21.9132 6.09331 21.5166 6.14086 21.1413 6.26529L20.6982 6.40863C20.3511 6.52336 19.9815 6.55247 19.6207 6.49348C19.2599 6.43448 18.9188 6.28914 18.6263 6.06983L18.483 5.96559C18.1976 5.74716 17.9676 5.46472 17.8114 5.14104C17.6552 4.81737 17.5773 4.46152 17.5839 4.1022V3.73734C17.5902 2.91904 17.2715 2.13168 16.6978 1.54818C16.4249 1.27252 16.1002 1.05349 15.7424 0.903661C15.3846 0.753836 15.0008 0.67617 14.6129 0.675125H11.29C10.4928 0.685428 9.7319 1.01026 9.17301 1.57891C8.61413 2.14756 8.30251 2.91397 8.30602 3.71128V4.02401C8.30476 4.40226 8.21865 4.7754 8.05402 5.11594C7.88939 5.45648 7.65043 5.75573 7.35477 5.99165L7.18537 6.12195C6.85875 6.36904 6.47672 6.53263 6.07249 6.59848C5.66827 6.66434 5.25407 6.63048 4.86591 6.49984C4.50941 6.37648 4.13158 6.32673 3.7553 6.3536C3.37901 6.38048 3.0121 6.48343 2.67675 6.65621C2.3276 6.8295 2.01784 7.07279 1.76676 7.37095C1.51569 7.66911 1.32865 8.01574 1.21731 8.38929L0.148791 11.7773C-0.0989977 12.5411 -0.0354518 13.3719 0.32563 14.0892C0.686712 14.8065 1.31618 15.3523 2.07734 15.6083H2.28583C2.63695 15.7399 2.9521 15.9524 3.20568 16.2286C3.45926 16.5048 3.64412 16.837 3.74527 17.198L3.82345 17.4065C3.96871 17.8054 4.01729 18.2331 3.96519 18.6544C3.91309 19.0758 3.7618 19.4787 3.52374 19.8302C3.04189 20.4865 2.83864 21.3064 2.95822 22.1117C3.07779 22.917 3.51051 23.6425 4.16225 24.1304L6.85961 26.1762C7.37035 26.5475 7.98733 26.744 8.61875 26.7365C8.78775 26.7531 8.95796 26.7531 9.12695 26.7365C9.51801 26.6608 9.88954 26.5062 10.2189 26.2822C10.5482 26.0582 10.8284 25.7694 11.0425 25.4334L11.3422 25.0034C11.5524 24.7019 11.8306 24.4539 12.1543 24.2796C12.4779 24.1053 12.8381 24.0096 13.2056 24.0001C13.5907 23.9906 13.972 24.0788 14.3138 24.2566C14.6555 24.4343 14.9467 24.6957 15.1602 25.0165L15.3165 25.238C15.5387 25.5686 15.8262 25.8503 16.1614 26.0656C16.4965 26.281 16.8721 26.4255 17.2652 26.4902C17.6583 26.5549 18.0604 26.5384 18.4469 26.4418C18.8334 26.3453 19.196 26.1706 19.5124 25.9286L22.1577 23.9479C22.7831 23.4622 23.199 22.7556 23.3202 21.973C23.4413 21.1904 23.2585 20.3911 22.8092 19.739L22.4704 19.2439C22.2667 18.9291 22.1333 18.574 22.0793 18.203C22.0253 17.8319 22.052 17.4536 22.1577 17.0938C22.2653 16.7087 22.4651 16.3555 22.7398 16.0649C23.0145 15.7743 23.3559 15.555 23.7344 15.4259L23.995 15.3347C24.7491 15.073 25.3719 14.5283 25.7318 13.8159C26.0917 13.1034 26.1604 12.2789 25.9235 11.5167ZM13.0362 18.2666C12.1341 18.2666 11.2524 17.9991 10.5023 17.4979C9.75234 16.9968 9.16777 16.2845 8.82258 15.4511C8.47739 14.6178 8.38707 13.7008 8.56305 12.8161C8.73903 11.9314 9.1734 11.1187 9.81123 10.4809C10.4491 9.84305 11.2617 9.40868 12.1464 9.23271C13.0311 9.05673 13.9481 9.14705 14.7815 9.49224C15.6149 9.83743 16.3271 10.422 16.8283 11.172C17.3294 11.922 17.5969 12.8038 17.5969 13.7058C17.5969 14.9154 17.1164 16.0754 16.2611 16.9307C15.4058 17.7861 14.2457 18.2666 13.0362 18.2666Z" fill="#A4AFCE"/>
</svg>
