<svg width="125" height="29" viewBox="0 0 125 29" fill="none" xmlns="http://www.w3.org/2000/svg">
<path d="M24.36 14.464C24.36 18.016 23.656 20.784 22.248 22.768C20.872 24.72 18.92 26.08 16.392 26.848C13.864 27.616 10.888 28 7.464 28H0.024V0.975999H7.464C10.888 0.975999 13.864 1.488 16.392 2.512C18.92 3.504 20.872 4.992 22.248 6.976C23.656 8.96 24.36 11.456 24.36 14.464ZM4.872 23.968H8.856C10.968 23.968 12.792 23.728 14.328 23.248C15.864 22.736 17.048 21.792 17.88 20.416C18.712 19.04 19.128 17.04 19.128 14.416C19.128 11.312 18.2 9.008 16.344 7.504C14.52 5.968 12.024 5.2 8.856 5.2H4.872V23.968Z" fill="#18ACE8"/>
<path d="M31.0054 28L26.3974 9.088V8.224H31.1974L34.4614 23.92H34.5574L38.7814 8.224H43.0054L47.3734 23.92H47.4694L50.7334 8.224H55.4854V9.088L50.8294 28H44.0134L40.9414 16.72H40.8454L37.9174 28H31.0054ZM67.1483 28.48C64.8763 28.48 63.0203 28 61.5803 27.04C60.1723 26.048 59.1163 24.8 58.4123 23.296C57.7403 21.76 57.3883 20.144 57.3563 18.448C57.3243 16.464 57.6923 14.704 58.4603 13.168C59.2603 11.6 60.3803 10.384 61.8203 9.52C63.2923 8.624 65.0203 8.176 67.0043 8.176C68.7643 8.176 70.3323 8.56 71.7083 9.328C73.1163 10.096 74.2363 11.184 75.0683 12.592C75.9003 13.968 76.3323 15.6 76.3643 17.488C76.3643 17.552 76.3643 17.728 76.3643 18.016C76.3643 18.304 76.3643 18.544 76.3643 18.736H62.0123C62.0123 20.56 62.4603 21.968 63.3563 22.96C64.2523 23.92 65.4843 24.4 67.0523 24.4C68.2683 24.4 69.2763 24.096 70.0763 23.488C70.9083 22.88 71.4043 22.08 71.5643 21.088H76.3163C76.0923 23.168 75.1963 24.928 73.6283 26.368C72.0603 27.776 69.9003 28.48 67.1483 28.48ZM62.1562 16.528H71.4683C71.4363 16.304 71.3563 15.952 71.2283 15.472C71.1323 14.992 70.9243 14.496 70.6043 13.984C70.3163 13.472 69.8683 13.04 69.2603 12.688C68.6523 12.336 67.8683 12.16 66.9083 12.16C65.6283 12.16 64.6523 12.432 63.9803 12.976C63.3403 13.488 62.8763 14.096 62.5883 14.8C62.3323 15.472 62.1883 16.048 62.1562 16.528ZM80.6321 28V0.975999H85.4321V28H80.6321ZM96.294 28.48C93.574 28.48 91.638 27.552 90.486 25.696C89.334 23.84 88.758 21.408 88.758 18.4C88.758 15.36 89.334 12.912 90.486 11.056C91.67 9.168 93.606 8.224 96.294 8.224C97.83 8.224 99.046 8.496 99.942 9.04C100.838 9.552 101.51 10.128 101.958 10.768C102.406 11.408 102.678 11.888 102.774 12.208H102.87V8.272H107.91V28H103.686L102.87 24.784H102.774C102.678 25.072 102.39 25.52 101.91 26.128C101.462 26.704 100.774 27.248 99.846 27.76C98.95 28.24 97.766 28.48 96.294 28.48ZM98.31 24.352C100.102 24.352 101.302 23.792 101.91 22.672C102.55 21.52 102.87 20.112 102.87 18.448C102.87 16.688 102.55 15.264 101.91 14.176C101.27 13.088 100.07 12.544 98.31 12.544C97.062 12.544 96.086 12.816 95.382 13.36C94.71 13.904 94.23 14.624 93.942 15.52C93.686 16.384 93.558 17.36 93.558 18.448C93.558 19.536 93.686 20.528 93.942 21.424C94.23 22.32 94.71 23.04 95.382 23.584C96.086 24.096 97.062 24.352 98.31 24.352ZM111.516 28V8.272H116.076L116.412 13.744C116.604 12.912 116.972 12.08 117.516 11.248C118.092 10.384 118.876 9.68 119.868 9.136C120.892 8.56 122.204 8.272 123.804 8.272H124.524V13.744H123.804C121.052 13.744 119.132 14.192 118.044 15.088C116.956 15.952 116.412 17.424 116.412 19.504V28H111.516Z" fill="#111110"/>
</svg>
